# xmcd
#
# Track frame offsets:
# 150
# 9206
# 17233
# 24120
# 33155
# 41080
# 49019
# 58033
# 71857
# 82246
# 96189
# 108851
# 117825
# 138486
# 151431
# 162505
# 175280
#
# Disc length: 2486 seconds
#
#
# Revision: 2
# Processed by: cddbd v1.4PL0 Copyright (c) Steve Scherf et al.
# Submitted via: FreeRIP 2.00 
#
DISCID=dc09b411
DTITLE=Xuxa - Só para baixinhos 3
DYEAR=2002
DGENRE=
TTITLE0=Vamos Brincar
TTITLE1=Mosca Sai
TTITLE2=BumBum, como é bom ser Lelé
TTITLE3=Imitando os Animais
TTITLE4=Sou um Jacaré
TTITLE5=Vem dançar com o Txutxucão
TTITLE6=Papi, o Camelo
TTITLE7=Como é bom Pular
TTITLE8=Vamos no Shake
TTITLE9=O coelinho Fufu
TTITLE10=Mexa os Dedinhos
TTITLE11=Por Quê?
TTITLE12=Os três Carneirinhos
TTITLE13=O sapinho saiu para Passear
TTITLE14=Se eu Fosse
TTITLE15=Pot-Pourri: Pôneis - Cavalinhos
TTITLE16=Quantas estrelas têm no Céu?
EXTD=YEAR: 2002
EXTT0=
EXTT1=
EXTT2=
EXTT3=
EXTT4=
EXTT5=
EXTT6=
EXTT7=
EXTT8=
EXTT9=
EXTT10=
EXTT11=
EXTT12=
EXTT13=
EXTT14=
EXTT15=
EXTT16=
PLAYORDER=
